Coordinates
version=1
nRows=29
nColumns=8
inDegrees=yes

Units are S.I. units (second, meters, Newtons, ...)
If the header above contains a line with 'inDegrees', this indicates whether rotational values are in degrees (yes) or radians (no).

endheader
time	bJoint_1	bJoint_3	bJoint_4	seatpos	hipangle	kneeangle	footangle
      7.52000000	      0.00000000	      0.00000000	     -0.00000000	     -0.17408929	     58.94890484	     70.73197136	     39.68087620
      7.54000000	      0.00000000	      0.00000000	      0.00000000	     -0.17308930	     59.05824849	     70.51896046	     39.57720895
      7.56000000	      0.00000000	     -0.00000000	      0.00000000	     -0.17208931	     59.16790053	     70.30538533	     39.47328587
      7.58000000	      0.00000000	      0.00000000	      0.00000000	     -0.17108933	     59.27786169	     70.09124478	     39.36910647
      7.60000000	      0.00000000	      0.00000000	      0.00000000	     -0.17008936	     59.38813658	     69.87653000	     39.26466657
      7.62000000	      0.00000000	      0.00000000	     -0.00000000	     -0.16908938	     59.49872833	     69.66123506	     39.15996339
      7.64000000	      0.00000000	      0.00000000	      0.00000000	     -0.16808938	     59.60964177	     69.44535078	     39.05499255
      7.66000000	      0.00000000	     -0.00000000	     -0.00000000	     -0.16708933	     59.72088296	     69.22886555	     38.94974851
      7.68000000	      0.00000000	      0.00000000	      0.00000000	     -0.16608935	     59.83244235	     69.01179817	     38.84424052
      7.70000000	      0.00000000	      0.00000000	     -0.00000000	     -0.16508942	     59.94432516	     68.79413867	     38.73846383
      7.72000000	      0.00000000	      0.00000000	      0.00000000	     -0.16408945	     60.05654368	     68.57586334	     38.63240703
      7.74000000	      0.00000000	      0.00000000	     -0.00000000	     -0.16308945	     60.16909936	     68.35696959	     38.52606895
      7.76000000	      0.00000000	     -0.00000000	      0.00000000	     -0.16208947	     60.28199218	     68.13745766	     38.41944984
      7.78000000	      0.00000000	      0.00000000	      0.00000000	     -0.16108950	     60.39522445	     67.91732329	     38.31254774
      7.80000000	      0.00000000	     -0.00000000	      0.00000000	     -0.16008948	     60.50880618	     67.69654721	     38.20535339
      7.82000000	      0.00000000	      0.00000000	     -0.00000000	     -0.15908950	     60.62273183	     67.47514045	     38.09787227
      7.84000000	      0.00000000	      0.00000000	      0.00000000	     -0.15808954	     60.73700594	     67.25309436	     37.99010031
      7.86000000	      0.00000000	      0.00000000	     -0.00000000	     -0.15708956	     60.85163680	     67.03039312	     37.88202992
      7.88000000	      0.00000000	      0.00000000	      0.00000000	     -0.15608957	     60.96662808	     66.80702981	     37.77365789
      7.90000000	      0.00000000	      0.00000000	      0.00000000	     -0.15508960	     61.08197834	     66.58300747	     37.66498581
      7.92000000	      0.00000000	      0.00000000	     -0.00000000	     -0.15408961	     61.19769531	     66.35831131	     37.55600662
      7.94000000	      0.00000000	     -0.00000000	      0.00000000	     -0.15308962	     61.31378173	     66.13293631	     37.44671803
      7.96000000	      0.00000000	     -0.00000000	     -0.00000000	     -0.15208963	     61.43024125	     65.90687557	     37.33711681
      7.98000000	      0.00000000	      0.00000000	     -0.00000000	     -0.15108962	     61.54707894	     65.68011954	     37.22719848
      8.00000000	      0.00000000	     -0.00000000	     -0.00000000	     -0.15008968	     61.66429019	     65.45267742	     37.11696761
      8.02000000	      0.00000000	     -0.00000000	      0.00000000	     -0.14908968	     61.78189191	     65.22451667	     37.00640857
      8.04000000	      0.00000000	      0.00000000	     -0.00000000	     -0.14808973	     61.89987672	     64.99565185	     36.89552857
      8.06000000	      0.00000000	      0.00000000	     -0.00000000	     -0.14708975	     62.01825752	     64.76605823	     36.78431575
      8.08000000	      0.00000000	      0.00000000	     -0.00000000	     -0.14708975	     62.01825752	     64.76605823	     36.78431575
